<svg width="100" height="100" viewBox="0 0 100 100" fill="none" xmlns="http://www.w3.org/2000/svg">
<path d="M77.8947 49.1432C76.3764 47.6217 74.3238 46.7535 72.1745 46.7237C70.0252 46.6939 67.9493 47.5049 66.3895 48.9838L66.0311 49.3153V51.4654L67.4645 50.1269C68.729 48.9317 70.4097 48.2765 72.1494 48.3006C73.8892 48.3247 75.5511 49.0262 76.782 50.256C76.8711 50.3447 76.9499 50.4433 77.0167 50.5498C77.6658 50.7574 78.2832 51.0534 78.8515 51.4296C78.8471 50.571 78.5031 49.7491 77.8947 49.1432V49.1432Z" fill="#FF30D6"/>
<path d="M58.8603 18.6376C57.861 18.6362 56.8821 18.9197 56.0381 19.4547C56.347 19.8857 56.5887 20.3612 56.7549 20.8648C57.1783 20.5696 57.6593 20.367 58.1663 20.2701C58.6734 20.1733 59.1951 20.1844 59.6976 20.3027C60.2001 20.4211 60.672 20.644 61.0825 20.957C61.493 21.2699 61.8329 21.6659 62.0801 22.1191C62.7761 22.202 63.4412 22.4542 64.0171 22.8537C63.4563 20.4079 61.3939 18.6376 58.8603 18.6376Z" fill="#FF30D6"/>
<path d="M49.5339 14.0004C48.5879 14.0007 47.6575 14.2406 46.8294 14.6977C46.0012 15.1549 45.3024 15.8143 44.7981 16.6146C44.5852 16.241 44.3263 15.8955 44.0276 15.5861C43.5317 15.0765 42.9373 14.6731 42.2806 14.4005C41.6239 14.1279 40.9185 13.9917 40.2075 14.0004C38.8032 14.0018 37.4568 14.5603 36.4638 15.5533C35.4708 16.5463 34.9123 17.8927 34.9109 19.297V23.3841C34.0418 22.5978 32.9113 22.1629 31.7394 22.1639C29.0821 22.1639 27 24.3141 27 27.0627V59.5286C26.9959 62.798 27.8979 66.0047 29.606 68.7925C31.314 71.5804 33.7611 73.8404 36.6758 75.3216C34.8315 73.817 33.3248 71.9409 32.2536 69.8154C29.8634 66.9206 28.558 63.2826 28.5625 59.5286V27.0645C28.5625 25.4519 29.6752 23.7335 31.734 23.7335C32.3478 23.7348 32.948 23.9141 33.4619 24.2496C33.9758 24.5852 34.3814 25.0625 34.6296 25.6239C35.2822 25.6602 35.9154 25.8592 36.4715 26.2026V19.297C36.4725 18.3084 36.8657 17.3605 37.5647 16.6614C38.2638 15.9623 39.2117 15.5692 40.2003 15.5682C40.6998 15.561 41.1956 15.6553 41.6576 15.8453C42.1195 16.0354 42.5382 16.3172 42.888 16.6738C43.1211 16.9167 43.3189 17.1912 43.4757 17.489C44.2782 17.5846 45.0392 17.8982 45.6761 18.3957C45.9008 17.6565 46.3351 16.9984 46.9264 16.5011C47.5176 16.0038 48.2404 15.6886 49.0071 15.5938C49.7739 15.4989 50.5517 15.6285 51.2462 15.9668C51.9408 16.3052 52.5224 16.8376 52.9204 17.4998C53.6439 17.6093 54.3304 17.8914 54.9218 18.3222C54.6853 17.393 54.2314 16.5333 53.5977 15.8137C53.0882 15.2398 52.4622 14.7812 51.7614 14.4685C51.0607 14.1558 50.3012 13.9962 49.5339 14.0004Z" fill="#FF30D6"/>
<path d="M64.1569 51.0838L66.0383 49.3152V26.8405C66.0437 26.063 65.8628 25.2956 65.5109 24.6023C65.1589 23.909 64.6461 23.3101 64.0153 22.8555C64.1128 23.2884 64.1621 23.7306 64.1622 24.1743L64.1569 51.0838Z" fill="#45E9FF"/>
<path d="M63.3738 67.219L76.8411 52.6086C77.0943 52.3335 77.2492 51.9822 77.2817 51.6097C77.3141 51.2372 77.2222 50.8645 77.0203 50.5498C75.7453 50.1381 74.3832 50.0759 73.076 50.3696C71.7687 50.6633 70.5642 51.3022 69.5878 52.2198L66.0347 55.5615V51.4654L63.906 53.4669C63.7596 53.6024 63.5679 53.6785 63.3685 53.6801H54.2302C52.7838 53.6796 51.3544 53.9909 50.0393 54.593C48.7242 55.195 47.5544 56.0736 46.6096 57.1688L45.4234 56.1438C46.5154 54.8784 47.8673 53.8632 49.3871 53.1675C50.9069 52.4718 52.5588 52.1119 54.2302 52.1123H62.5818V24.1743C62.5911 23.4604 62.4158 22.7562 62.073 22.1298C61.4387 22.0513 60.7949 22.1086 60.1845 22.2979C59.574 22.4873 59.0108 22.8043 58.5322 23.2279C58.0537 23.6516 57.6707 24.1722 57.4088 24.7552C57.1468 25.3382 57.0119 25.9702 57.0129 26.6094V22.5205C57.0118 21.9581 56.9224 21.3994 56.7477 20.8648C56.25 21.2071 55.8431 21.6655 55.5621 22.2002C55.2811 22.735 55.1346 23.3301 55.1351 23.9342V42.3899H53.5672V19.8542C53.5787 19.0279 53.3603 18.2146 52.9365 17.5052C52.694 17.4683 52.449 17.4497 52.2037 17.4496C51.5716 17.4496 50.9458 17.5741 50.3619 17.816C49.778 18.0578 49.2474 18.4124 48.8005 18.8593C48.3536 19.3062 47.9991 19.8367 47.7572 20.4207C47.5153 21.0046 47.3908 21.6304 47.3908 22.2624V21.9758C47.3976 21.2888 47.2483 20.6092 46.954 19.9884C46.6598 19.3676 46.2283 18.8218 45.6922 18.3921C45.5723 18.781 45.5119 19.1857 45.513 19.5926V42.3863H43.9452V19.3095C43.9475 18.6749 43.793 18.0496 43.4954 17.4891C43.2916 17.4631 43.0863 17.4499 42.8809 17.4496C41.6843 17.4496 40.5367 17.925 39.6905 18.7711C38.8444 19.6172 38.3691 20.7648 38.3691 21.9614V29.5712C38.3694 28.8958 38.1967 28.2315 37.8673 27.6418C37.5379 27.0521 37.063 26.5566 36.4877 26.2026V42.3863H34.9198V26.905C34.915 26.4622 34.816 26.0255 34.6296 25.6239C34.5525 25.6239 34.4755 25.6149 34.3984 25.6149C32.0261 25.6149 30.4421 27.559 30.4421 29.7361V62.193C30.4396 64.8405 31.0596 67.4515 32.2518 69.8154C33.7349 71.6267 35.6014 73.0864 37.7167 74.0894C39.832 75.0923 42.1435 75.6136 44.4845 75.6155C52.5226 75.6155 57.993 73.1822 63.3738 67.219Z" fill="#45E9FF"/>
<path d="M80.0072 52.3649C79.6556 52.0166 79.271 51.7034 78.8587 51.4296C78.8652 52.2583 78.555 53.0582 77.9914 53.6658L64.5313 68.269C61.7701 71.3295 59.0842 73.4205 56.0829 74.8414C52.7609 76.4128 48.9694 77.1708 44.4881 77.1708C41.775 77.173 39.0996 76.5352 36.6794 75.3091C39.6319 77.7315 43.3334 79.0545 47.1525 79.0522C56.1922 79.0522 61.6483 75.9075 66.6206 70.3959L80.0807 55.7926C80.5122 55.3218 80.7454 54.7026 80.7317 54.064C80.718 53.4255 80.4585 52.8168 80.0072 52.3649V52.3649Z" fill="#45E9FF"/>
<path d="M55.1297 20.175C55.4056 19.9038 55.7103 19.6635 56.0382 19.4582C55.7336 19.0247 55.3602 18.644 54.9326 18.3312C55.0626 18.8297 55.1288 19.3427 55.1297 19.8578V20.175Z" fill="#45E9FF"/>
<path d="M43.9362 42.3863H45.5041V19.5962C45.5029 19.1893 45.5633 18.7845 45.6833 18.3957C45.0464 17.8982 44.2854 17.5846 43.4829 17.489C43.7805 18.0496 43.935 18.6749 43.9327 19.3095L43.9362 42.3863Z" fill="#452CD6"/>
<path d="M34.9109 42.3863H36.4787V26.2026C35.9204 25.858 35.2846 25.6591 34.6295 25.6239C34.8105 26.0267 34.9039 26.4634 34.9037 26.905L34.9109 42.3863Z" fill="#452CD6"/>
<path d="M53.5619 42.3863H55.1297V23.9306C55.1292 23.3265 55.2758 22.7314 55.5567 22.1967C55.8377 21.6619 56.2446 21.2036 56.7423 20.8612C56.5762 20.3576 56.3345 19.8821 56.0256 19.4511C55.6977 19.6563 55.3931 19.8967 55.1172 20.1678V19.8542C55.1163 19.3391 55.05 18.8261 54.9201 18.3276C54.3286 17.8968 53.6421 17.6147 52.9186 17.5052C53.3424 18.2146 53.5608 19.0279 53.5493 19.8542L53.5619 42.3863Z" fill="#452CD6"/>
<path d="M77.0239 50.5498C77.2258 50.8645 77.3177 51.2373 77.2852 51.6097C77.2528 51.9822 77.0979 52.3335 76.8447 52.6086L63.3774 67.2191C58.002 73.1822 52.5262 75.6155 44.4935 75.6155C42.1528 75.6133 39.8417 75.092 37.7267 74.089C35.6117 73.086 33.7455 71.6265 32.2626 69.8154C33.3337 71.9409 34.8405 73.817 36.6848 75.3216C39.1023 76.5463 41.7745 77.1841 44.4845 77.1833C48.9641 77.1833 52.7573 76.4182 56.0794 74.854C59.0807 73.4331 61.7666 71.342 64.5278 68.2816L77.9915 53.6658C78.5557 53.0566 78.8653 52.2545 78.8569 51.4242C78.2889 51.0501 77.6721 50.7558 77.0239 50.5498V50.5498Z" fill="#452CD6"/>
<path d="M46.6061 57.1688C47.5508 56.0736 48.7206 55.195 50.0357 54.593C51.3508 53.9909 52.7803 53.6796 54.2266 53.6801H63.3649C63.5644 53.6785 63.756 53.6024 63.9024 53.4669L66.0311 51.4654V49.3152L64.1497 51.0838V24.1743C64.1495 23.7306 64.1003 23.2884 64.0028 22.8555C63.4269 22.456 62.7618 22.2038 62.0658 22.1209C62.4126 22.7492 62.5904 23.4567 62.5819 24.1743V52.1123H54.2266C52.5552 52.1119 50.9033 52.4718 49.3835 53.1675C47.8638 53.8633 46.5118 54.8784 45.4199 56.1439L46.6061 57.1688Z" fill="#452CD6"/>
<circle cx="50" cy="50" r="49" stroke="#FF30D6" stroke-width="2"/>
</svg>
