<svg width="300" height="364" viewBox="0 0 300 364" fill="none" xmlns="http://www.w3.org/2000/svg">
<path d="M284.04 196.132C275.567 187.641 264.111 182.795 252.116 182.629C240.121 182.463 228.536 186.989 219.83 195.242L217.83 197.092V209.092L225.83 201.622C232.887 194.952 242.267 191.295 251.976 191.43C261.686 191.564 270.961 195.479 277.83 202.342C278.328 202.837 278.767 203.388 279.14 203.982C282.763 205.141 286.209 206.793 289.38 208.892C289.355 204.101 287.436 199.513 284.04 196.132V196.132Z" fill="#FF30D6"/>
<path d="M177.81 25.8822C172.233 25.8745 166.77 27.4562 162.06 30.4422C163.784 32.8479 165.133 35.5015 166.06 38.3122C168.423 36.6646 171.108 35.5337 173.937 34.9932C176.767 34.4527 179.679 34.5147 182.483 35.1752C185.288 35.8357 187.921 37.0798 190.212 38.8264C192.503 40.5731 194.4 42.783 195.78 45.3122C199.664 45.7748 203.376 47.1825 206.59 49.4122C203.46 35.7622 191.95 25.8822 177.81 25.8822Z" fill="#FF30D6"/>
<path d="M125.76 0.00216627C120.481 0.00364266 115.288 1.34251 110.666 3.89383C106.045 6.44515 102.145 10.1258 99.3301 14.5922C98.1417 12.507 96.6972 10.5787 95.0301 8.85217C92.2626 6.00788 88.9453 3.75647 85.28 2.23502C81.6148 0.713558 77.6783 -0.0461288 73.7101 0.00216627C65.8727 0.0101082 58.3586 3.127 52.8168 8.66885C47.2749 14.2107 44.158 21.7248 44.1501 29.5622V52.3722C39.2998 47.984 32.9908 45.5567 26.4501 45.5622C11.6201 45.5622 7.76768e-05 57.5622 7.76768e-05 72.9022V254.092C-0.022807 272.339 5.01136 290.235 14.5437 305.794C24.076 321.353 37.7334 333.965 54.0001 342.232C43.7073 333.835 35.2982 323.364 29.3201 311.502C15.9805 295.347 8.69523 275.043 8.72011 254.092V72.9122C8.72011 63.9122 14.9301 54.3222 26.4201 54.3222C29.8455 54.3295 33.1951 55.3301 36.0634 57.2026C38.9316 59.0751 41.1953 61.7392 42.5801 64.8722C46.2224 65.075 49.7563 66.1854 52.8601 68.1022V29.5622C52.8654 24.0446 55.0596 18.7546 58.9611 14.8531C62.8626 10.9516 68.1526 8.75746 73.6701 8.75217C76.4578 8.71206 79.2245 9.23821 81.8029 10.2988C84.3812 11.3593 86.7175 12.9322 88.6701 14.9221C89.9707 16.2781 91.0748 17.8097 91.9501 19.4722C96.4288 20.0055 100.676 21.7555 104.23 24.5322C105.484 20.4069 107.908 16.7339 111.208 13.9584C114.507 11.1829 118.541 9.42395 122.82 8.89474C127.1 8.36554 131.44 9.08881 135.317 10.9769C139.193 12.8649 142.439 15.8367 144.66 19.5322C148.698 20.1435 152.529 21.7178 155.83 24.1222C154.51 18.9363 151.977 14.138 148.44 10.1222C145.597 6.9194 142.103 4.36003 138.192 2.6149C134.281 0.869765 130.043 -0.020973 125.76 0.00216627Z" fill="#FF30D6"/>
<path d="M207.37 206.962L217.87 197.092V71.6622C217.9 67.3231 216.891 63.0399 214.927 59.1707C212.963 55.3015 210.101 51.9588 206.58 49.4221C207.124 51.8377 207.399 54.3061 207.4 56.7822L207.37 206.962Z" fill="#45E9FF"/>
<path d="M203 297.012L278.16 215.472C279.573 213.937 280.438 211.976 280.619 209.898C280.8 207.819 280.287 205.739 279.16 203.982C272.044 201.684 264.443 201.337 257.147 202.976C249.851 204.616 243.129 208.181 237.68 213.302L217.85 231.952V209.092L205.97 220.262C205.153 221.019 204.083 221.443 202.97 221.452H151.97C143.898 221.449 135.92 223.187 128.581 226.547C121.241 229.907 114.713 234.81 109.44 240.922L102.82 235.202C108.914 228.14 116.459 222.474 124.941 218.592C133.423 214.709 142.642 212.7 151.97 212.702H198.58V56.7822C198.632 52.7977 197.653 48.8675 195.74 45.3722C192.2 44.9339 188.607 45.2537 185.2 46.3103C181.793 47.3669 178.65 49.1361 175.979 51.5005C173.309 53.8649 171.171 56.7703 169.709 60.024C168.247 63.2777 167.494 66.8051 167.5 70.3722V47.5522C167.494 44.4136 166.995 41.2955 166.02 38.3122C163.242 40.2226 160.971 42.7806 159.403 45.765C157.835 48.7495 157.017 52.0708 157.02 55.4422V158.442H148.27V32.6721C148.334 28.0604 147.115 23.5216 144.75 19.5622C143.396 19.3562 142.029 19.2525 140.66 19.2522C137.133 19.2522 133.64 19.9469 130.381 21.2968C127.122 22.6466 124.161 24.6251 121.667 27.1193C119.173 29.6134 117.194 32.5745 115.845 35.8333C114.495 39.0921 113.8 42.5848 113.8 46.1122V44.5122C113.838 40.6782 113.004 36.8857 111.362 33.421C109.72 29.9563 107.312 26.9101 104.32 24.5122C103.651 26.6823 103.313 28.9412 103.32 31.2122V158.422H94.57V29.6322C94.583 26.0905 93.7208 22.6004 92.06 19.4722C90.9224 19.3273 89.7768 19.2538 88.63 19.2522C81.9519 19.2522 75.5473 21.9051 70.8251 26.6272C66.1029 31.3494 63.4501 37.754 63.4501 44.4322V86.9022C63.452 83.1325 62.4879 79.4251 60.6498 76.134C58.8116 72.8428 56.1607 70.0776 52.9501 68.1022V158.422H44.2001V72.0222C44.1731 69.5509 43.6208 67.1137 42.5801 64.8722C42.1501 64.8722 41.7201 64.8222 41.2901 64.8222C28.0501 64.8222 19.2101 75.6722 19.2101 87.8222V268.962C19.1964 283.738 22.6561 298.31 29.31 311.502C37.5873 321.611 48.004 329.758 59.8094 335.355C71.6148 340.953 84.5149 343.861 97.5801 343.872C142.44 343.872 172.97 330.292 203 297.012Z" fill="#45E9FF"/>
<path d="M295.83 214.112C293.868 212.168 291.721 210.42 289.42 208.892C289.457 213.517 287.725 217.981 284.58 221.372L209.46 302.872C194.05 319.952 179.06 331.622 162.31 339.552C143.77 348.322 122.61 352.552 97.6001 352.552C82.4584 352.565 67.5274 349.005 54.0201 342.162C70.4977 355.682 91.1559 363.065 112.47 363.052C162.92 363.052 193.37 345.502 221.12 314.742L296.24 233.242C298.648 230.614 299.95 227.159 299.873 223.595C299.797 220.031 298.349 216.634 295.83 214.112V214.112Z" fill="#45E9FF"/>
<path d="M156.99 34.4622C158.53 32.9489 160.23 31.6077 162.06 30.4622C160.36 28.0428 158.276 25.9181 155.89 24.1721C156.616 26.9542 156.985 29.8171 156.99 32.6922V34.4622Z" fill="#45E9FF"/>
<path d="M94.5201 158.422H103.27V31.2321C103.264 28.9612 103.601 26.7023 104.27 24.5322C100.716 21.7555 96.4687 20.0055 91.9901 19.4722C93.6508 22.6004 94.513 26.0905 94.5001 29.6322L94.5201 158.422Z" fill="#452CD6"/>
<path d="M44.1501 158.422H52.9001V68.1022C49.7845 66.179 46.2361 65.0684 42.5801 64.8722C43.5899 67.1205 44.1114 69.5575 44.1101 72.0222L44.1501 158.422Z" fill="#452CD6"/>
<path d="M148.24 158.422H156.99V55.4221C156.987 52.0508 157.805 48.7295 159.373 45.745C160.941 42.7605 163.212 40.2026 165.99 38.2922C165.063 35.4815 163.714 32.8279 161.99 30.4221C160.16 31.5677 158.46 32.9089 156.92 34.4221V32.6721C156.915 29.7971 156.546 26.9342 155.82 24.1522C152.519 21.7478 148.688 20.1734 144.65 19.5622C147.015 23.5216 148.234 28.0604 148.17 32.6721L148.24 158.422Z" fill="#452CD6"/>
<path d="M279.18 203.982C280.307 205.739 280.82 207.819 280.639 209.898C280.458 211.976 279.593 213.937 278.18 215.472L203.02 297.012C173.02 330.292 142.46 343.872 97.6301 343.872C84.5666 343.86 71.6684 340.95 59.8649 335.353C48.0613 329.755 37.6462 321.61 29.3701 311.502C35.3482 323.364 43.7573 333.835 54.05 342.232C67.5423 349.067 82.4553 352.627 97.5801 352.622C122.58 352.622 143.75 348.352 162.29 339.622C179.04 331.692 194.03 320.022 209.44 302.942L284.58 221.372C287.729 217.972 289.457 213.496 289.41 208.862C286.24 206.774 282.798 205.132 279.18 203.982V203.982Z" fill="#452CD6"/>
<path d="M109.42 240.922C114.693 234.81 121.221 229.907 128.561 226.547C135.9 223.187 143.878 221.449 151.95 221.452H202.95C204.063 221.443 205.133 221.019 205.95 220.262L217.83 209.092V197.092L207.33 206.962V56.7822C207.329 54.3061 207.054 51.8377 206.51 49.4221C203.296 47.1925 199.584 45.7848 195.7 45.3222C197.636 48.8286 198.628 52.7773 198.58 56.7822V212.702H151.95C142.622 212.7 133.403 214.709 124.921 218.592C116.439 222.474 108.894 228.14 102.8 235.202L109.42 240.922Z" fill="#452CD6"/>
</svg>
