<svg width="100" height="100" viewBox="0 0 100 100" fill="none" xmlns="http://www.w3.org/2000/svg">
<path d="M25.6661 53.6524V47.4182C26.015 47.7991 26.4087 48.1363 26.8387 48.4225V46.215C26.0828 45.3598 25.6658 44.2576 25.6661 43.1162V35.8759C25.6653 34.9717 25.9256 34.0866 26.416 33.3269C26.9063 32.5672 27.6056 31.9654 28.4299 31.5937C29.2541 31.2221 30.1682 31.0966 31.0622 31.2322C31.9561 31.3678 32.7918 31.7587 33.4688 32.3581C34.6338 32.4038 35.7633 32.7713 36.7322 33.4197V28.7255C36.7313 27.7634 37.0053 26.821 37.5221 26.0095C38.0388 25.1979 38.7767 24.5509 39.6489 24.1446C40.521 23.7384 41.4911 23.5899 42.4449 23.7165C43.3986 23.8432 44.2963 24.2398 45.0322 24.8596C46.5175 24.9482 47.9309 25.529 49.0493 26.5104C49.393 25.8204 49.8884 25.2171 50.4984 24.7456C51.1083 24.2741 51.817 23.9468 52.5714 23.788C53.3258 23.6292 54.1063 23.6431 54.8545 23.8287C55.6028 24.0142 56.2993 24.3667 56.8921 24.8596C58.3545 24.9496 59.7482 25.5121 60.8633 26.4626C61.1572 25.8714 61.5862 25.3576 62.1154 24.9629C62.6447 24.5682 63.2594 24.3035 63.9098 24.1902C64.5603 24.077 65.2283 24.1184 65.8598 24.3111C66.4913 24.5038 67.0685 24.8424 67.545 25.2995C68.3817 25.3082 69.2068 25.4961 69.9648 25.8504C69.5086 24.8732 68.7926 24.0402 67.8951 23.4423C66.9975 22.8444 65.9529 22.5047 64.8754 22.4603C63.7979 22.4158 62.7288 22.6684 61.7851 23.1904C60.8414 23.7124 60.0593 24.4837 59.5242 25.42C58.9266 24.374 58.0613 23.5059 57.0172 22.9049C55.973 22.3039 54.7878 21.9916 53.5831 22.0002C52.3783 22.0087 51.1976 22.3378 50.1622 22.9536C49.1267 23.5694 48.2738 24.4498 47.6911 25.5042C46.9742 24.1948 45.842 23.1611 44.4728 22.566C43.1037 21.9709 41.5755 21.8482 40.129 22.2173C38.6824 22.5864 37.3998 23.4262 36.4832 24.6045C35.5665 25.7828 35.068 27.2326 35.0661 28.7255V31.5757C34.1995 30.6287 33.067 29.9657 31.817 29.6736C30.567 29.3815 29.258 29.474 28.0615 29.9389C26.865 30.4039 25.837 31.2195 25.1122 32.279C24.3874 33.3385 23.9997 34.5922 24 35.8759V53.6524C24.0005 56.7611 24.689 59.8311 26.0162 62.6423C27.3434 65.4535 29.2764 67.9361 31.6764 69.9119C29.7766 67.6156 28.3852 64.9425 27.5943 62.0691C26.3243 59.4451 25.6651 56.5675 25.6661 53.6524Z" fill="#FF30D6"/>
<path d="M75.1793 48.61C74.7515 47.4683 74.136 46.406 73.3582 45.4671V31.1836C73.3568 30.0635 73.0363 28.9671 72.4343 28.0226C71.8323 27.0781 70.9737 26.3247 69.959 25.8504C70.3235 26.6288 70.5123 27.4777 70.5119 28.3372V42.6207C72.1373 44.5793 73.0277 47.0441 73.0292 49.5894V49.5894C73.0292 63.454 61.7432 74.7343 47.8843 74.7343H45.0838C40.1835 74.7385 35.436 73.0292 31.663 69.9023C33.6388 72.3025 36.1213 74.2355 38.9325 75.5627C41.7437 76.8899 44.8138 77.5784 47.9226 77.5787H50.7249C64.5896 77.5787 75.8679 66.2927 75.8679 52.4338C75.8696 51.1282 75.6363 49.833 75.1793 48.61V48.61Z" fill="#45E9FF"/>
<path d="M26.833 38.7203V46.215C27.462 46.9348 28.2958 47.4452 29.2228 47.6781C30.1499 47.911 31.1259 47.8552 32.0204 47.5182C32.9149 47.1812 33.6851 46.5791 34.228 45.7924C34.7709 45.0057 35.0607 44.072 35.0584 43.1162V35.8759C35.0591 35.2102 34.9176 34.552 34.6435 33.9453C34.3693 33.3387 33.9689 32.7975 33.4688 32.3581C33.3827 32.3581 33.2966 32.3581 33.2086 32.3581C31.5202 32.3586 29.9008 33.0286 28.7057 34.2213C27.5105 35.414 26.837 37.0319 26.833 38.7203V38.7203Z" fill="#45E9FF"/>
<path d="M27.579 62.0671C29.1662 65.3622 31.6503 68.143 34.7463 70.0903C37.8422 72.0375 41.4245 73.0723 45.0819 73.0758H47.8824C54.1052 73.0687 60.071 70.5936 64.4712 66.1934C68.8713 61.7933 71.3464 55.8274 71.3535 49.6047V49.6047C71.3525 47.147 70.3754 44.7903 68.637 43.053C66.8986 41.3157 64.5414 40.3401 62.0837 40.3406H37.8703C37.5659 40.3406 37.274 40.4615 37.0588 40.6767C36.8435 40.892 36.7226 41.1839 36.7226 41.4883V42.7259C36.7251 44.8301 37.5621 46.8473 39.05 48.3351C40.5378 49.823 42.5551 50.66 44.6592 50.6625H56.674V52.3363H56.5363C54.1734 52.3388 51.9081 53.2786 50.2373 54.9494C48.5665 56.6202 47.6267 58.8856 47.6242 61.2484V64.1178H45.9523V61.235C45.9526 59.4596 46.3996 57.7128 47.252 56.1554C48.1044 54.598 49.3349 53.2801 50.8302 52.3229H44.663C42.7699 52.3196 40.9199 51.7582 39.3442 50.7089C37.7685 49.6596 36.5373 48.169 35.8044 46.4235C35.3595 47.1573 34.7707 47.7935 34.0735 48.2937C33.3762 48.794 32.585 49.1479 31.7473 49.3343C30.9097 49.5207 30.043 49.5357 29.1994 49.3783C28.3558 49.221 27.5528 48.8945 26.8387 48.4187V56.4968C26.8357 58.3783 27.0847 60.2517 27.579 62.0671V62.0671Z" fill="#45E9FF"/>
<path d="M62.363 28.2645C61.9684 27.5818 61.4592 26.9722 60.8575 26.4626C60.5653 27.0442 60.4133 27.6862 60.4137 28.3372V38.6668H62.0837C64.5338 38.6649 66.9132 39.4884 68.8381 41.0043V28.3372C68.8377 27.7694 68.7224 27.2076 68.4992 26.6856C68.276 26.1635 67.9494 25.6921 67.5392 25.2995H67.4723C66.4349 25.2998 65.4161 25.5742 64.5189 26.0949C63.6217 26.6155 62.8779 27.364 62.363 28.2645V28.2645Z" fill="#45E9FF"/>
<path d="M50.5337 28.3487C50.1511 27.6537 49.6493 27.0315 49.0512 26.5104C48.696 27.2179 48.5112 27.9988 48.5118 28.7905V38.6591H58.7457V28.7905C58.746 28.0401 58.5809 27.2988 58.2622 26.6193C57.9435 25.9399 57.479 25.3391 56.9017 24.8596C56.7601 24.8596 56.6186 24.8462 56.4751 24.8462C55.2623 24.8468 54.0718 25.1719 53.0271 25.7878C51.9824 26.4036 51.1215 27.2879 50.5337 28.3487V28.3487Z" fill="#45E9FF"/>
<path d="M37.9086 31.5719V34.4221C37.5602 34.0413 37.1664 33.7046 36.736 33.4197V35.8759V38.9001C37.0974 38.7402 37.4885 38.6581 37.8837 38.6591H46.8456V28.7255C46.8457 27.9883 46.684 27.26 46.372 26.592C46.06 25.9241 45.6053 25.3327 45.0399 24.8596C44.9079 24.8596 44.774 24.8462 44.6381 24.8462C42.8543 24.8472 41.1438 25.556 39.8821 26.817C38.6204 28.078 37.9106 29.7881 37.9086 31.5719Z" fill="#45E9FF"/>
<path d="M47.8843 74.7496C61.7489 74.7496 73.0292 63.4635 73.0292 49.6047C73.0277 47.0594 72.1373 44.5946 70.5119 42.636V28.3372C70.5123 27.4777 70.3235 26.6287 69.959 25.8504C69.201 25.4961 68.3759 25.3082 67.5392 25.2995C67.9495 25.692 68.276 26.1635 68.4992 26.6856C68.7224 27.2076 68.8377 27.7694 68.8381 28.3372V40.9967C66.9132 39.4807 64.5338 38.6573 62.0837 38.6591H60.4137V28.3295C60.4133 27.6786 60.5653 27.0366 60.8575 26.4549C59.745 25.5064 58.355 24.9439 56.8959 24.8519C57.4732 25.3314 57.9378 25.9322 58.2565 26.6117C58.5752 27.2911 58.7403 28.0324 58.74 28.7829V38.6515H48.506V28.7905C48.5055 27.9988 48.6902 27.2179 49.0454 26.5104C47.9271 25.529 46.5136 24.9482 45.0284 24.8596C45.5938 25.3327 46.0485 25.9241 46.3605 26.592C46.6725 27.26 46.8342 27.9883 46.8341 28.7255V38.6591H37.8703C37.4751 38.6581 37.0841 38.7402 36.7226 38.9001V35.8759V33.4197C35.7537 32.7713 34.6242 32.4038 33.4592 32.3581C33.9593 32.7975 34.3598 33.3387 34.6339 33.9453C34.908 34.552 35.0495 35.2102 35.0488 35.8759V43.1162C35.0511 44.072 34.7614 45.0057 34.2184 45.7924C33.6755 46.5791 32.9053 47.1812 32.0108 47.5182C31.1164 47.8552 30.1403 47.911 29.2133 47.6781C28.2862 47.4452 27.4524 46.9347 26.8234 46.215V48.4187C27.5381 48.897 28.3423 49.2255 29.1874 49.3842C30.0326 49.5429 30.9012 49.5286 31.7407 49.3421C32.5802 49.1556 33.3731 48.8008 34.0716 48.2992C34.7701 47.7975 35.3596 47.1595 35.8044 46.4235C36.5377 48.1699 37.7698 49.6611 39.3466 50.7105C40.9234 51.7599 42.7747 52.3208 44.6688 52.3229H50.8397C49.3444 53.2801 48.114 54.598 47.2615 56.1554C46.4091 57.7128 45.9622 59.4596 45.9619 61.235V64.1177H47.6337V61.235C47.6363 58.8721 48.576 56.6068 50.2468 54.936C51.9176 53.2652 54.183 52.3254 56.5459 52.3229H56.6836V50.6491H44.663C42.5589 50.6466 40.5417 49.8096 39.0538 48.3217C37.566 46.8339 36.729 44.8167 36.7264 42.7125V41.4749C36.7264 41.1705 36.8474 40.8786 37.0626 40.6633C37.2778 40.4481 37.5698 40.3272 37.8742 40.3272H62.0837C64.5384 40.3261 66.8932 41.299 68.6315 43.0322C70.3697 44.7654 71.3494 47.1175 71.3555 49.5721V49.5721C71.3484 55.7949 68.8732 61.7608 64.4731 66.1609C60.0729 70.5611 54.1071 73.0362 47.8843 73.0433H45.0839C41.4296 73.0431 37.8493 72.0133 34.7533 70.072C31.6573 68.1307 29.1709 65.3564 27.579 62.0671C28.3699 64.9406 29.7612 67.6137 31.6611 69.91C35.4341 73.0369 40.1816 74.7462 45.0819 74.7419L47.8843 74.7496Z" fill="#452CD6"/>
<circle cx="50" cy="50" r="49" stroke="#FF30D6" stroke-width="2"/>
</svg>
