<svg width="272" height="291" viewBox="0 0 272 291" fill="none" xmlns="http://www.w3.org/2000/svg">
<path d="M8.71001 165.469V132.879C10.5338 134.87 12.5922 136.633 14.84 138.129V126.589C10.8883 122.118 8.70805 116.356 8.71001 110.389V72.5389C8.7055 67.8122 10.0667 63.1849 12.6299 59.2135C15.193 55.2421 18.849 52.0959 23.158 50.1532C27.467 48.2105 32.2456 47.5541 36.9188 48.263C41.592 48.9718 45.9609 51.0158 49.5 54.1489C55.5901 54.388 61.495 56.309 66.56 59.6989V35.1589C66.5552 30.1292 67.9879 25.2029 70.6893 20.9602C73.3906 16.7175 77.2482 13.3352 81.8076 11.2115C86.367 9.08788 91.4382 8.31138 96.4241 8.97352C101.41 9.63567 106.103 11.7089 109.95 14.9489C117.714 15.4122 125.103 18.4487 130.95 23.5789C132.747 19.9717 135.337 16.8178 138.526 14.3532C141.714 11.8886 145.419 10.1771 149.363 9.34703C153.306 8.51693 157.387 8.58966 161.298 9.55977C165.21 10.5299 168.851 12.3722 171.95 14.9489C179.595 15.4194 186.881 18.3602 192.71 23.3289C194.247 20.2384 196.489 17.5527 199.256 15.4891C202.023 13.4255 205.236 12.0419 208.636 11.45C212.037 10.8581 215.529 11.0746 218.83 12.082C222.131 13.0893 225.149 14.8594 227.64 17.2489C232.014 17.2943 236.327 18.2764 240.29 20.1289C237.905 15.0203 234.162 10.6653 229.47 7.53975C224.778 4.41419 219.317 2.6383 213.684 2.40608C208.051 2.17386 202.463 3.49426 197.529 6.223C192.596 8.95175 188.507 12.9839 185.71 17.8789C182.586 12.4105 178.062 7.87231 172.604 4.73039C167.145 1.58847 160.949 -0.0438978 154.651 0.000897736C148.353 0.0456933 142.181 1.76606 136.768 4.9853C131.355 8.20455 126.896 12.8066 123.85 18.3189C120.102 11.4735 114.183 6.06966 107.026 2.95866C99.8684 -0.152333 91.8793 -0.793606 84.3173 1.13585C76.7553 3.0653 70.0502 7.45583 65.2583 13.6157C60.4664 19.7756 57.8601 27.3547 57.85 35.1589V50.0589C53.32 45.1082 47.3995 41.642 40.865 40.1151C34.3305 38.5881 27.4871 39.0717 21.2322 41.5022C14.9773 43.9328 9.60303 48.197 5.81412 53.7355C2.02521 59.2741 -0.0014339 65.8284 7.61176e-07 72.5389V165.469C0.00244381 181.72 3.60191 197.77 10.5401 212.466C17.4783 227.162 27.5833 240.14 40.13 250.469C30.1981 238.465 22.9247 224.491 18.79 209.469C12.1506 195.752 8.70441 180.709 8.71001 165.469Z" fill="#FF30D6"/>
<path d="M267.55 139.109C265.314 133.14 262.096 127.587 258.03 122.679V48.0089C258.022 42.1538 256.347 36.422 253.2 31.4845C250.053 26.547 245.564 22.6081 240.26 20.1289C242.165 24.1977 243.152 28.636 243.15 33.1289V107.799C251.647 118.038 256.302 130.923 256.31 144.229V144.229C256.31 216.709 197.31 275.679 124.86 275.679H110.22C84.6027 275.701 59.7839 266.766 40.06 250.419C50.3886 262.966 63.3666 273.071 78.0627 280.01C92.7588 286.948 108.808 290.547 125.06 290.549H139.71C212.19 290.549 271.15 231.549 271.15 159.099C271.159 152.274 269.939 145.502 267.55 139.109V139.109Z" fill="#45E9FF"/>
<path d="M14.81 87.4089V126.589C18.0983 130.351 22.4572 133.02 27.3034 134.237C32.1497 135.455 37.2522 135.163 41.9282 133.401C46.6042 131.64 50.6307 128.492 53.4689 124.38C56.3072 120.267 57.8217 115.386 57.81 110.389V72.5389C57.8135 69.0588 57.0739 65.618 55.6408 62.4466C54.2077 59.2752 52.1141 56.4462 49.5 54.1489C49.05 54.1489 48.6 54.1489 48.14 54.1489C39.3133 54.1515 30.8478 57.6543 24.5998 63.8892C18.3518 70.1241 14.8312 78.5822 14.81 87.4089V87.4089Z" fill="#45E9FF"/>
<path d="M18.71 209.459C27.0071 226.685 39.9934 241.222 56.1782 251.401C72.363 261.581 91.0901 266.99 110.21 267.009H124.85C157.381 266.972 188.568 254.033 211.571 231.03C234.574 208.027 247.513 176.84 247.55 144.309V144.309C247.545 131.461 242.436 119.141 233.349 110.059C224.261 100.977 211.938 95.8763 199.09 95.8789H72.51C70.9187 95.8789 69.3926 96.511 68.2674 97.6363C67.1422 98.7615 66.51 100.288 66.51 101.879V108.349C66.5232 119.349 70.8988 129.894 78.6768 137.672C86.4548 145.45 97.0003 149.826 108 149.839H170.81V158.589H170.09C157.738 158.602 145.895 163.515 137.161 172.249C128.426 180.984 123.513 192.827 123.5 205.179V220.179H114.76V205.109C114.762 195.828 117.098 186.696 121.554 178.554C126.01 170.413 132.443 163.523 140.26 158.519H108.02C98.1236 158.502 88.4519 155.567 80.2149 150.082C71.9778 144.596 65.5411 136.804 61.71 127.679C59.3841 131.515 56.306 134.841 52.661 137.456C49.0161 140.071 44.8796 141.921 40.5007 142.896C36.1218 143.87 31.591 143.948 27.181 143.126C22.771 142.303 18.5731 140.597 14.84 138.109V180.339C14.8241 190.175 16.1257 199.969 18.71 209.459V209.459Z" fill="#45E9FF"/>
<path d="M200.55 32.7489C198.488 29.1799 195.825 25.9933 192.68 23.3289C191.152 26.3697 190.358 29.7259 190.36 33.1289V87.1289H199.09C211.899 87.1192 224.337 91.424 234.4 99.3489V33.1289C234.398 30.1608 233.795 27.2238 232.628 24.4948C231.462 21.7657 229.754 19.3009 227.61 17.2489H227.26C221.837 17.2506 216.511 18.6849 211.82 21.4068C207.13 24.1287 203.242 28.0414 200.55 32.7489V32.7489Z" fill="#45E9FF"/>
<path d="M138.71 33.1889C136.71 29.5559 134.087 26.303 130.96 23.5789C129.103 27.2779 128.137 31.36 128.14 35.4989V87.0889H181.64V35.4989C181.642 31.5757 180.779 27.7003 179.113 24.1485C177.446 20.5967 175.018 17.4557 172 14.9489C171.26 14.9489 170.52 14.8789 169.77 14.8789C163.43 14.8821 157.207 16.5817 151.745 19.8014C146.283 23.021 141.783 27.6433 138.71 33.1889V33.1889Z" fill="#45E9FF"/>
<path d="M72.71 50.0389V64.9389C70.8886 62.9482 68.8299 61.1884 66.58 59.6989V72.5389V88.3489C68.4695 87.5127 70.5138 87.0834 72.58 87.0889H119.43V35.1589C119.43 31.3048 118.585 27.4976 116.954 24.0057C115.323 20.5138 112.946 17.4222 109.99 14.9489C109.3 14.9489 108.6 14.8789 107.89 14.8789C98.5648 14.8842 89.6227 18.5896 83.0269 25.1817C76.4311 31.7737 72.7206 40.7137 72.71 50.0389Z" fill="#45E9FF"/>
<path d="M124.86 275.759C197.34 275.759 256.31 216.759 256.31 144.309C256.302 131.003 251.647 118.118 243.15 107.879V33.1289C243.152 28.636 242.165 24.1977 240.26 20.1289C236.297 18.2764 231.984 17.2943 227.61 17.2489C229.754 19.3009 231.462 21.7657 232.628 24.4948C233.795 27.2238 234.398 30.1608 234.4 33.1289V99.3089C224.337 91.3839 211.899 87.0792 199.09 87.0889H190.36V33.0889C190.358 29.6859 191.152 26.3297 192.68 23.2889C186.864 18.3302 179.598 15.39 171.97 14.9089C174.988 17.4156 177.416 20.5567 179.083 24.1085C180.749 27.6603 181.612 31.5357 181.61 35.4589V87.0489H128.11V35.4989C128.107 31.36 129.073 27.2779 130.93 23.5789C125.083 18.4487 117.694 15.4122 109.93 14.9489C112.886 17.4222 115.263 20.5138 116.894 24.0057C118.525 27.4976 119.37 31.3048 119.37 35.1589V87.0889H72.51C70.4438 87.0834 68.3995 87.5127 66.51 88.3489V72.5389V59.6989C61.445 56.309 55.5401 54.388 49.45 54.1489C52.0642 56.4462 54.1578 59.2752 55.5908 62.4466C57.0239 65.618 57.7635 69.0588 57.76 72.5389V110.389C57.7717 115.386 56.2572 120.267 53.4189 124.38C50.5807 128.492 46.5542 131.64 41.8782 133.401C37.2022 135.163 32.0997 135.455 27.2534 134.237C22.4072 133.02 18.0483 130.351 14.76 126.589V138.109C18.4959 140.61 22.7001 142.327 27.1184 143.156C31.5367 143.986 36.0774 143.911 40.4659 142.936C44.8545 141.961 48.9998 140.107 52.6512 137.484C56.3026 134.862 59.3843 131.526 61.71 127.679C65.5431 136.808 71.9844 144.604 80.2274 150.09C88.4703 155.576 98.1485 158.508 108.05 158.519H140.31C132.493 163.523 126.06 170.413 121.604 178.554C117.148 186.696 114.812 195.828 114.81 205.109V220.179H123.55V205.109C123.563 192.757 128.476 180.914 137.211 172.179C145.945 163.445 157.788 158.532 170.14 158.519H170.86V149.769H108.02C97.0202 149.756 86.4748 145.38 78.6968 137.602C70.9187 129.824 66.5432 119.279 66.53 108.279V101.809C66.53 100.218 67.1622 98.6915 68.2874 97.5663C69.4126 96.441 70.9387 95.8089 72.53 95.8089H199.09C211.922 95.8036 224.233 100.889 233.32 109.95C242.407 119.011 247.528 131.307 247.56 144.139V144.139C247.523 176.67 234.584 207.857 211.581 230.86C188.578 253.863 157.391 266.802 124.86 266.839H110.22C91.1166 266.838 72.3999 261.455 56.215 251.306C40.0302 241.158 27.0319 226.654 18.71 209.459C22.8447 224.481 30.1181 238.455 40.05 250.459C59.7739 266.806 84.5927 275.741 110.21 275.719L124.86 275.759Z" fill="#452CD6"/>
</svg>
