<svg width="250" height="382" viewBox="0 0 250 382" fill="none" xmlns="http://www.w3.org/2000/svg">
<path d="M243.15 26.7519C240.148 22.7523 236.186 19.5743 231.63 17.5119C233.97 22.6613 234.789 28.3724 233.99 33.9719C228.4 75.7219 224.16 105.542 221.06 127.312C211.7 193.122 211.7 193.122 211.7 257.912C211.7 289.372 199.81 317.852 178.21 338.102C158.512 356.448 132.588 366.64 105.67 366.622C103.39 366.622 101.107 366.545 98.8201 366.392C77.3549 364.982 56.8807 356.839 40.3101 343.122C41.2301 344.232 42.1601 345.332 43.1201 346.412C61.6101 367.142 86.6801 379.522 113.69 381.272C115.98 381.422 118.26 381.492 120.55 381.492C147.468 381.508 173.391 371.316 193.09 352.972C214.68 332.732 226.58 304.252 226.58 272.782C226.58 208.002 226.58 208.002 235.94 142.192C239.04 120.422 243.28 90.6019 248.87 48.8419C249.426 44.9645 249.207 41.0153 248.225 37.2233C247.243 33.4313 245.518 29.872 243.15 26.7519V26.7519Z" fill="#45E9FF"/>
<path d="M112.05 142.612C115.278 147.653 116.989 153.516 116.98 159.502V200.752H154.52C164.22 200.757 173.76 203.229 182.242 207.934C190.724 212.64 197.871 219.425 203.01 227.652C203.27 190.272 204.69 180.302 212.4 126.102C215.49 104.342 219.73 74.5419 225.33 32.8018C225.783 29.5509 225.47 26.2392 224.418 23.1301C223.366 20.021 221.604 17.2001 219.27 14.8919C212.096 14.9101 205.169 17.5132 199.758 22.2242C194.347 26.9352 190.815 33.4384 189.81 40.5419L173.81 149.982L169.71 121.822L163.26 166.092C163.102 167.127 162.579 168.072 161.784 168.754C160.99 169.437 159.977 169.812 158.93 169.812C157.883 169.812 156.87 169.437 156.076 168.754C155.281 168.072 154.758 167.127 154.6 166.092L134.41 27.3419C133.764 22.7845 131.634 18.5671 128.35 15.3419C124.084 15.3449 119.868 16.2641 115.988 18.0374C112.108 19.8106 108.654 22.3966 105.86 25.6202C103.066 28.8439 100.997 32.63 99.7927 36.7226C98.5884 40.8152 98.2772 45.1186 98.8801 49.3419L112.05 142.612Z" fill="#45E9FF"/>
<path d="M31.3901 239.662C36.9072 239.654 42.2333 237.64 46.375 233.995C50.5167 230.35 53.1913 225.323 53.9001 219.852C53.9001 219.602 53.9001 219.352 53.9001 219.112C53.8976 218.232 53.9611 217.353 54.0901 216.482V183.932C54.0907 180.829 53.4526 177.759 52.2156 174.914C50.9787 172.068 49.1693 169.508 46.9001 167.392H46.2801C37.9476 167.402 29.9594 170.717 24.0674 176.609C18.1754 182.501 14.8607 190.489 14.8501 198.822V232.452C16.9644 234.725 19.5241 236.538 22.3697 237.778C25.2153 239.019 28.2859 239.66 31.3901 239.662V239.662Z" fill="#45E9FF"/>
<path d="M172.23 331.752C192.04 313.182 202.95 286.972 202.95 257.952C202.937 245.112 197.83 232.801 188.751 223.721C179.671 214.642 167.36 209.535 154.52 209.522H72.3001C70.0777 209.524 67.9246 210.295 66.2059 211.704C64.4871 213.113 63.3085 215.073 62.8701 217.252C62.8701 218.252 62.8001 219.252 62.7001 220.252C63.0033 229.179 66.7601 237.64 73.179 243.852C79.5979 250.064 88.1776 253.541 97.1101 253.552H138.62V262.302C127.803 262.315 117.433 266.618 109.785 274.267C102.136 281.915 97.8334 292.285 97.8201 303.102V316.452H89.0701V303.092C89.0714 295.061 91.0255 287.151 94.764 280.043C98.5025 272.935 103.913 266.843 110.53 262.292H97.1101C88.4907 262.283 80.0707 259.698 72.9309 254.869C65.7911 250.041 60.2574 243.188 57.0401 235.192C52.4152 241.71 45.4778 246.217 37.6432 247.795C29.8086 249.373 21.6672 247.901 14.8801 243.682V272.182C14.8752 282.203 16.2206 292.18 18.8801 301.842C23.0306 310.51 28.3833 318.549 34.7801 325.722C51.7801 344.722 74.6701 356.072 99.3801 357.672C112.648 358.54 125.954 356.689 138.481 352.232C151.008 347.775 162.492 340.806 172.23 331.752V331.752Z" fill="#45E9FF"/>
<path d="M158.98 135.092L165.34 91.4619L157.99 40.9619C157.287 35.9874 155.339 31.271 152.327 27.2502C149.315 23.2294 145.336 20.0345 140.76 17.9619C141.926 20.547 142.721 23.2841 143.12 26.0919L158.98 135.092Z" fill="#45E9FF"/>
<path d="M108.23 200.752V159.502C108.232 156.397 107.595 153.326 106.358 150.479C105.121 147.631 103.311 145.069 101.04 142.952H100.39C92.0558 142.96 84.0651 146.273 78.171 152.166C72.2768 158.058 68.9607 166.048 68.9501 174.382V177.072C67.1232 175.16 65.0676 173.481 62.83 172.072V203.352C65.6766 201.638 68.9376 200.736 72.2601 200.742L108.23 200.752Z" fill="#45E9FF"/>
<path d="M231.63 17.5219C230.721 15.526 229.598 13.6349 228.28 11.8819C224.732 7.17033 219.867 3.61671 214.299 1.67041C208.732 -0.27588 202.712 -0.527436 197.001 0.947575C191.291 2.42259 186.146 5.55791 182.217 9.95704C178.288 14.3562 175.753 19.8215 174.93 25.6619L165.34 91.4619L158.98 135.092L143.12 26.0919C142.002 18.2708 137.83 11.2119 131.517 6.46198C125.203 1.71209 117.265 -0.341292 109.44 0.751866C101.607 1.855 94.532 6.02343 89.7709 12.3409C85.0099 18.6583 82.9522 26.6078 84.0501 34.4419L97.5501 130.492C93.7725 128.932 89.727 128.124 85.6401 128.112H85.5501C77.2159 128.122 69.2262 131.439 63.3339 137.333C57.4417 143.227 54.128 151.218 54.1201 159.552V162.242C49.7819 157.709 44.1859 154.578 38.0528 153.254C31.9197 151.929 25.5305 152.471 19.7083 154.81C13.886 157.149 8.89728 161.177 5.38477 166.376C1.87227 171.576 -0.00315636 177.707 6.6196e-05 183.982V257.362C-0.0297702 284.737 10.0274 311.163 28.2501 331.592C31.9667 335.759 35.9986 339.634 40.3101 343.182C56.8807 356.899 77.3549 365.042 98.8201 366.452C101.107 366.605 103.39 366.682 105.67 366.682C132.588 366.7 158.512 356.508 178.21 338.162C199.81 317.912 211.7 289.432 211.7 257.972C211.7 193.182 211.7 193.182 221.06 127.372C224.16 105.602 228.4 75.7819 233.99 34.0319C234.799 28.4161 233.98 22.6862 231.63 17.5219ZM62.8701 159.522C62.8754 153.507 65.2662 147.741 69.5181 143.487C73.77 139.233 79.5357 136.84 85.5501 136.832H85.6101C89.6971 136.844 93.705 137.96 97.21 140.062C98.5843 140.896 99.868 141.872 101.04 142.972C103.311 145.089 105.121 147.651 106.358 150.499C107.595 153.346 108.232 156.417 108.23 159.522V200.752H72.3001C68.9776 200.746 65.7166 201.648 62.8701 203.362V159.502V159.522ZM8.75007 183.952C8.87466 178.018 11.3194 172.369 15.5601 168.216C19.8008 164.064 25.4998 161.738 31.4351 161.738C37.3703 161.738 43.0694 164.064 47.3101 168.216C51.5508 172.369 53.9955 178.018 54.1201 183.952V216.502C53.9911 217.373 53.9276 218.252 53.9301 219.132C53.9301 219.372 53.9301 219.622 53.9301 219.872C53.1864 225.583 50.2988 230.798 45.8527 234.458C41.4065 238.119 35.7346 239.952 29.9869 239.586C24.2392 239.22 18.8459 236.682 14.9005 232.486C10.955 228.29 8.75269 222.751 8.74006 216.992L8.75007 183.952ZM172.23 331.752C162.494 340.805 151.011 347.773 138.486 352.23C125.96 356.687 112.656 358.539 99.3901 357.672C74.6801 356.072 51.7401 344.722 34.7901 325.722C18.0308 306.876 8.77812 282.531 8.7901 257.312V238.752C10.6161 240.669 12.6755 242.348 14.9201 243.752C21.7072 247.971 29.8486 249.442 37.6832 247.865C45.5178 246.287 52.4552 241.78 57.0801 235.262C60.2974 243.258 65.8311 250.111 72.9709 254.939C80.1107 259.768 88.5307 262.353 97.1501 262.362H110.57C103.953 266.913 98.5425 273.005 94.804 280.113C91.0655 287.221 89.1114 295.131 89.1101 303.162V316.452H97.8601V303.092C97.8733 292.275 102.176 281.905 109.825 274.257C117.473 266.608 127.843 262.305 138.66 262.292V253.542H97.1501C88.2176 253.531 79.638 250.054 73.2191 243.842C66.8002 237.63 63.0432 229.169 62.7401 220.242C62.8401 219.242 62.9001 218.242 62.9101 217.242C63.3486 215.063 64.5271 213.103 66.2458 211.694C67.9645 210.285 70.1176 209.514 72.34 209.512H154.56C167.4 209.525 179.711 214.632 188.791 223.711C197.87 232.791 202.977 245.101 202.99 257.942C202.95 286.942 192.04 313.152 172.23 331.752ZM225.33 32.7519C219.73 74.4919 215.49 104.292 212.4 126.052C204.69 180.252 203.27 190.222 203.01 227.602C197.871 219.375 190.724 212.59 182.242 207.884C173.76 203.179 164.22 200.707 154.52 200.702H116.98V159.502C116.989 153.516 115.278 147.653 112.05 142.612C110.696 140.496 109.094 138.549 107.28 136.812L92.72 33.1719C91.9456 27.6368 93.4017 22.0208 96.768 17.5593C100.134 13.0978 105.135 10.1563 110.67 9.38187C116.205 8.60744 121.821 10.0635 126.283 13.4298C130.744 16.7961 133.686 21.7968 134.46 27.3319L154.65 166.082C154.808 167.117 155.331 168.062 156.126 168.744C156.92 169.427 157.933 169.802 158.98 169.802C160.027 169.802 161.04 169.427 161.834 168.744C162.629 168.062 163.152 167.117 163.31 166.082L169.76 121.812L183.59 26.9019C184.458 21.4437 187.435 16.5447 191.88 13.2599C196.324 9.97509 201.881 8.56721 207.354 9.33945C212.827 10.1117 217.777 13.0023 221.139 17.3887C224.501 21.7752 226.006 27.3066 225.33 32.7919V32.7519Z" fill="#FF30D6"/>
<path d="M154.65 166.082C154.808 167.117 155.331 168.062 156.126 168.744C156.92 169.427 157.933 169.802 158.98 169.802C160.027 169.802 161.04 169.427 161.834 168.744C162.629 168.062 163.152 167.117 163.31 166.082L169.76 121.812L165.39 91.4619L159.03 135.092L143.17 26.0919C142.771 23.2841 141.976 20.547 140.81 17.9619C136.931 16.1918 132.714 15.2842 128.45 15.3019C131.734 18.5271 133.864 22.7445 134.51 27.3019L154.65 166.082Z" fill="#452CD6"/>
<path d="M231.63 17.5218C227.744 15.7741 223.531 14.8742 219.27 14.8819C221.604 17.1901 223.366 20.0109 224.418 23.1201C225.47 26.2292 225.783 29.5409 225.33 32.7919C219.73 74.5319 215.49 104.332 212.4 126.092C204.69 180.292 203.27 190.262 203.01 227.642C197.871 219.415 190.724 212.63 182.242 207.924C173.76 203.219 164.22 200.747 154.52 200.742H116.98V159.502C116.989 153.516 115.278 147.653 112.05 142.612L112.43 145.322C108.815 143.827 104.951 143.024 101.04 142.952C103.311 145.069 105.121 147.631 106.358 150.479C107.595 153.326 108.232 156.397 108.23 159.502V200.752H72.3001C68.9776 200.746 65.7166 201.648 62.8701 203.362V172.102C58.0799 169.12 52.5714 167.493 46.9301 167.392C49.1993 169.508 51.0086 172.068 52.2456 174.914C53.4826 177.759 54.1206 180.829 54.1201 183.932V216.482C53.9911 217.353 53.9276 218.232 53.9301 219.112C53.9301 219.352 53.9301 219.602 53.9301 219.852C53.389 224.125 51.6414 228.155 48.892 231.47C46.1426 234.786 42.5053 237.249 38.4062 238.571C34.3072 239.893 29.9162 240.02 25.7477 238.936C21.5793 237.852 17.806 235.603 14.8701 232.452V243.682C21.6572 247.901 29.7986 249.373 37.6332 247.795C45.4678 246.217 52.4052 241.71 57.0301 235.192C60.2474 243.188 65.7812 250.041 72.921 254.869C80.0608 259.698 88.4807 262.283 97.1 262.292H110.52C103.903 266.843 98.4925 272.935 94.754 280.043C91.0154 287.151 89.0614 295.061 89.0601 303.092V316.452H97.8101V303.092C97.8234 292.275 102.126 281.905 109.775 274.257C117.423 266.608 127.793 262.305 138.61 262.292V253.542H97.1C88.1676 253.531 79.5879 250.054 73.169 243.842C66.7501 237.63 62.9933 229.169 62.6901 220.242C62.7901 219.242 62.85 218.242 62.86 217.242C63.2985 215.063 64.4771 213.103 66.1959 211.694C67.9146 210.285 70.0677 209.514 72.2901 209.512H154.51C167.35 209.525 179.661 214.632 188.741 223.711C197.82 232.791 202.927 245.101 202.94 257.942C202.94 286.942 192.03 313.172 172.22 331.742C162.486 340.795 151.005 347.765 138.481 352.224C125.958 356.682 112.656 358.536 99.3901 357.672C74.6801 356.072 51.7401 344.722 34.7901 325.722C28.3933 318.549 23.0406 310.51 18.8901 301.842C23.0387 316.964 30.3422 331.036 40.3201 343.132C56.8907 356.849 77.3647 364.992 98.83 366.402C101.117 366.555 103.4 366.632 105.68 366.632C132.598 366.65 158.522 356.458 178.22 338.112C199.82 317.862 211.71 289.382 211.71 257.922C211.71 193.132 211.71 193.132 221.07 127.322C224.17 105.552 228.41 75.7319 234 33.9819C234.796 28.3815 233.974 22.6702 231.63 17.5218V17.5218Z" fill="#452CD6"/>
</svg>
