<svg width="100" height="100" viewBox="0 0 100 100" fill="none" xmlns="http://www.w3.org/2000/svg">
<path d="M72.5665 19.0133C72.0039 18.2638 71.2614 17.6682 70.4077 17.2817C70.8462 18.2467 70.9996 19.317 70.8499 20.3664C69.8024 28.1903 69.0078 33.7786 68.4268 37.8583C66.6728 50.1912 66.6728 50.1912 66.6728 62.3329C66.6728 68.2285 64.4446 73.5657 60.3967 77.3606C56.7052 80.7986 51.8472 82.7086 46.8027 82.7052C46.3754 82.7052 45.9475 82.6909 45.519 82.6621C41.4964 82.3979 37.6595 80.8719 34.5541 78.3013C34.7265 78.5093 34.9008 78.7155 35.0807 78.9179C38.5458 82.8027 43.2439 85.1227 48.3056 85.4507C48.7348 85.4788 49.162 85.4919 49.5912 85.4919C54.6356 85.4949 59.4936 83.5849 63.1852 80.1472C67.2312 76.3542 69.4613 71.017 69.4613 65.1195C69.4613 52.9797 69.4613 52.9797 71.2154 40.6469C71.7963 36.5672 72.5909 30.9789 73.6384 23.153C73.7427 22.4264 73.7016 21.6863 73.5176 20.9757C73.3336 20.2651 73.0103 19.598 72.5665 19.0133V19.0133Z" fill="#45E9FF"/>
<path d="M47.9983 40.7256C48.6031 41.6703 48.9238 42.769 48.9222 43.8908V51.6211H55.9572C57.775 51.6221 59.5627 52.0852 61.1523 52.9671C62.7419 53.8489 64.0812 55.1204 65.0443 56.6622C65.093 49.6571 65.3591 47.7887 66.804 37.6316C67.383 33.5538 68.1776 27.9692 69.227 20.1471C69.3118 19.5379 69.2533 18.9173 69.0562 18.3346C68.859 17.752 68.5287 17.2233 68.0914 16.7908C66.7469 16.7942 65.4487 17.282 64.4348 18.1648C63.4208 19.0477 62.759 20.2664 62.5706 21.5976L59.5722 42.1067L58.8038 36.8295L57.5951 45.1258C57.5655 45.3198 57.4674 45.4968 57.3185 45.6247C57.1697 45.7526 56.9799 45.8229 56.7836 45.8229C56.5874 45.8229 56.3976 45.7526 56.2487 45.6247C56.0999 45.4968 56.0017 45.3198 55.9722 45.1258L52.1886 19.1239C52.0675 18.2698 51.6683 17.4795 51.0529 16.8751C50.2534 16.8756 49.4634 17.0479 48.7363 17.3802C48.0092 17.7125 47.3619 18.1971 46.8383 18.8013C46.3147 19.4054 45.9269 20.1149 45.7012 20.8819C45.4756 21.6488 45.4172 22.4553 45.5302 23.2467L47.9983 40.7256Z" fill="#45E9FF"/>
<path d="M32.8825 58.9128C33.9164 58.9114 34.9146 58.5339 35.6907 57.8509C36.4669 57.1678 36.9681 56.2258 37.1009 55.2004C37.1009 55.1536 37.1009 55.1067 37.1009 55.0617C37.1005 54.8968 37.1124 54.732 37.1365 54.5689V48.469C37.1366 47.8875 37.0171 47.3123 36.7853 46.779C36.5534 46.2458 36.2144 45.7659 35.7891 45.3694H35.6729C34.1114 45.3714 32.6144 45.9925 31.5102 47.0967C30.4061 48.2009 29.7849 49.6979 29.7829 51.2594V57.5617C30.1791 57.9876 30.6588 58.3274 31.1921 58.5598C31.7254 58.7923 32.3008 58.9124 32.8825 58.9128V58.9128Z" fill="#45E9FF"/>
<path d="M59.2761 76.1706C62.9885 72.6905 65.033 67.7787 65.033 62.3404C65.0305 59.9341 64.0735 57.627 62.372 55.9255C60.6705 54.224 58.3635 53.267 55.9572 53.2646H40.5491C40.1326 53.265 39.7291 53.4095 39.407 53.6735C39.0849 53.9376 38.8641 54.3049 38.7819 54.7132C38.7819 54.9006 38.7688 55.088 38.7501 55.2754C38.8069 56.9484 39.5109 58.534 40.7138 59.6981C41.9167 60.8622 43.5245 61.5139 45.1985 61.5158H52.9775V63.1556C50.9504 63.158 49.0071 63.9644 47.5737 65.3978C46.1404 66.8311 45.3341 68.7744 45.3316 70.8015V73.3033H43.6918V70.7996C43.6921 69.2946 44.0582 67.8123 44.7588 66.4803C45.4594 65.1483 46.4734 64.0066 47.7134 63.1537H45.1985C43.5832 63.152 42.0053 62.6676 40.6673 61.7627C39.3293 60.8578 38.2923 59.5737 37.6894 58.0751C36.8227 59.2966 35.5226 60.1413 34.0544 60.4369C32.5862 60.7326 31.0604 60.4569 29.7885 59.6662V65.0071C29.7876 66.8851 30.0398 68.7547 30.5381 70.5654C31.3159 72.1898 32.3191 73.6964 33.5178 75.0405C36.7036 78.6011 40.9932 80.7281 45.6239 81.028C48.1103 81.1908 50.6038 80.8439 52.9514 80.0086C55.299 79.1733 57.4512 77.8673 59.2761 76.1706V76.1706Z" fill="#45E9FF"/>
<path d="M56.793 39.3163L57.9849 31.14L56.6075 21.6763C56.4758 20.7441 56.1107 19.8602 55.5463 19.1067C54.9818 18.3532 54.2362 17.7545 53.3785 17.3661C53.5971 17.8505 53.746 18.3635 53.8208 18.8896L56.793 39.3163Z" fill="#45E9FF"/>
<path d="M47.2824 51.6211V43.8908C47.2828 43.309 47.1633 42.7334 46.9315 42.1998C46.6997 41.6662 46.3605 41.1861 45.935 40.7893H45.8132C44.2513 40.7908 42.7539 41.4117 41.6493 42.516C40.5447 43.6202 39.9233 45.1175 39.9213 46.6793V47.1834C39.579 46.8252 39.1937 46.5104 38.7744 46.2464V52.1083C39.3078 51.7872 39.919 51.618 40.5416 51.6192L47.2824 51.6211Z" fill="#45E9FF"/>
<path d="M70.4077 17.2836C70.2373 16.9096 70.0268 16.5552 69.7799 16.2267C69.115 15.3437 68.2032 14.6778 67.1598 14.313C66.1165 13.9483 64.9883 13.9012 63.9182 14.1776C62.848 14.454 61.8838 15.0416 61.1476 15.866C60.4114 16.6904 59.9362 17.7146 59.782 18.8091L57.9849 31.14L56.793 39.3163L53.8208 18.8896C53.6114 17.424 52.8294 16.1011 51.6463 15.211C50.4632 14.3208 48.9755 13.936 47.5092 14.1409C46.0412 14.3476 44.7154 15.1288 43.8231 16.3127C42.9309 17.4966 42.5453 18.9863 42.7511 20.4544L45.281 38.4543C44.5731 38.1619 43.8149 38.0105 43.049 38.0083H43.0322C41.4703 38.0102 39.973 38.6317 38.8688 39.7363C37.7646 40.8408 37.1436 42.3383 37.1421 43.9001V44.4043C36.3292 43.5547 35.2805 42.9681 34.1311 42.7199C32.9818 42.4717 31.7844 42.5732 30.6933 43.0115C29.6022 43.4498 28.6674 44.2048 28.0091 45.1791C27.3509 46.1534 26.9994 47.3025 27 48.4783V62.2298C26.9944 67.3599 28.8791 72.3122 32.2941 76.1406C32.9906 76.9215 33.7462 77.6476 34.5541 78.3125C37.6595 80.8832 41.4964 82.4091 45.519 82.6734C45.9475 82.7021 46.3754 82.7165 46.8027 82.7165C51.8472 82.7199 56.7052 80.8099 60.3967 77.3718C64.4446 73.5769 66.6728 68.2398 66.6728 62.3441C66.6728 50.2024 66.6728 50.2024 68.4268 37.8696C69.0078 33.7899 69.8024 28.2016 70.8499 20.3776C71.0015 19.3252 70.848 18.2514 70.4077 17.2836ZM38.7819 43.8945C38.7829 42.7674 39.2309 41.6867 40.0278 40.8896C40.8246 40.0924 41.9051 39.6439 43.0322 39.6424H43.0434C43.8093 39.6446 44.5604 39.8537 45.2172 40.2477C45.4748 40.4041 45.7153 40.5868 45.935 40.793C46.3605 41.1898 46.6997 41.6699 46.9315 42.2035C47.1633 42.7371 47.2828 43.3127 47.2824 43.8945V51.6211H40.5491C39.9265 51.6199 39.3153 51.7891 38.7819 52.1102V43.8908V43.8945ZM28.6398 48.4727C28.6631 47.3607 29.1213 46.3021 29.916 45.5239C30.7107 44.7457 31.7787 44.3099 32.891 44.3099C34.0032 44.3099 35.0712 44.7457 35.8659 45.5239C36.6607 46.3021 37.1188 47.3607 37.1421 48.4727V54.5726C37.118 54.7358 37.1061 54.9005 37.1065 55.0655C37.1065 55.1105 37.1065 55.1573 37.1065 55.2042C36.9672 56.2744 36.426 57.2517 35.5928 57.9377C34.7596 58.6237 33.6967 58.9673 32.6196 58.8986C31.5424 58.83 30.5317 58.3543 29.7924 57.568C29.053 56.7818 28.6403 55.7437 28.6379 54.6644L28.6398 48.4727ZM59.276 76.1706C57.4514 77.867 55.2996 79.173 52.9523 80.0082C50.605 80.8435 48.1119 81.1905 45.6258 81.028C40.9951 80.7281 36.6961 78.6011 33.5197 75.0405C30.379 71.5089 28.645 66.9466 28.6473 62.2204V58.7423C28.9895 59.1015 29.3754 59.4163 29.796 59.6793C31.068 60.4701 32.5936 60.7457 34.0619 60.4501C35.5301 60.1544 36.8301 59.3097 37.6969 58.0883C38.2998 59.5868 39.3368 60.8709 40.6748 61.7758C42.0128 62.6808 43.5907 63.1651 45.206 63.1668H47.7209C46.4809 64.0197 45.467 65.1614 44.7664 66.4934C44.0657 67.8254 43.6995 69.3078 43.6993 70.8128V73.3033H45.3391V70.7997C45.3415 68.7726 46.1479 66.8292 47.5813 65.3959C49.0146 63.9625 50.9579 63.1562 52.985 63.1537V61.5139H45.206C43.5321 61.512 41.9242 60.8603 40.7213 59.6962C39.5184 58.5321 38.8144 56.9465 38.7575 55.2735C38.7763 55.0861 38.7875 54.8987 38.7894 54.7113C38.8716 54.303 39.0924 53.9357 39.4145 53.6717C39.7366 53.4077 40.1401 53.2632 40.5566 53.2627H55.9647C58.371 53.2652 60.678 54.2222 62.3795 55.9237C64.081 57.6252 65.038 59.9322 65.0405 62.3385C65.033 67.7731 62.9885 72.6849 59.276 76.1706ZM69.227 20.1377C68.1776 27.9598 67.383 33.5444 66.8039 37.6222C65.3591 47.7793 65.093 49.6477 65.0443 56.6528C64.0812 55.111 62.7419 53.8395 61.1523 52.9577C59.5627 52.0759 57.775 51.6127 55.9572 51.6117H48.9222V43.8908C48.9238 42.769 48.6031 41.6703 47.9983 40.7256C47.7444 40.3291 47.4444 39.9642 47.1044 39.6387L44.3758 20.2164C44.2307 19.1792 44.5036 18.1267 45.1344 17.2906C45.7652 16.4545 46.7024 15.9033 47.7397 15.7582C48.7769 15.613 49.8294 15.8859 50.6655 16.5168C51.5016 17.1476 52.0528 18.0847 52.1979 19.122L55.9816 45.1239C56.0111 45.3179 56.1092 45.4949 56.2581 45.6228C56.407 45.7507 56.5967 45.821 56.793 45.821C56.9893 45.821 57.179 45.7507 57.3279 45.6228C57.4768 45.4949 57.5749 45.3179 57.6044 45.1239L58.8132 36.8276L61.4049 19.0414C61.5676 18.0186 62.1255 17.1005 62.9584 16.4849C63.7914 15.8693 64.8327 15.6055 65.8583 15.7502C66.8839 15.8949 67.8116 16.4366 68.4416 17.2587C69.0717 18.0807 69.3537 19.1173 69.227 20.1452V20.1377Z" fill="#FF30D6"/>
<path d="M55.9815 45.1239C56.0111 45.3179 56.1092 45.4949 56.2581 45.6228C56.407 45.7507 56.5967 45.821 56.793 45.821C56.9892 45.821 57.179 45.7507 57.3279 45.6228C57.4768 45.4949 57.5749 45.3179 57.6044 45.1239L58.8132 36.8276L57.9942 31.14L56.8024 39.3163L53.8302 18.8896C53.7554 18.3635 53.6065 17.8505 53.3879 17.3661C52.661 17.0344 51.8707 16.8643 51.0717 16.8676C51.6871 17.472 52.0862 18.2623 52.2073 19.1164L55.9815 45.1239Z" fill="#452CD6"/>
<path d="M70.4077 17.2836C69.6795 16.9561 68.8899 16.7874 68.0914 16.7889C68.5287 17.2214 68.859 17.7501 69.0562 18.3327C69.2533 18.9154 69.3118 19.536 69.227 20.1452C68.1776 27.9673 67.383 33.5519 66.8039 37.6297C65.3591 47.7868 65.093 49.6552 65.0442 56.6603C64.0812 55.1185 62.7419 53.847 61.1523 52.9652C59.5627 52.0833 57.775 51.6202 55.9572 51.6192H48.9222V43.8908C48.9238 42.769 48.6031 41.6703 47.9983 40.7256L48.0695 41.2334C47.392 40.9534 46.668 40.8027 45.935 40.7893C46.3605 41.1861 46.6997 41.6662 46.9315 42.1998C47.1633 42.7334 47.2828 43.309 47.2824 43.8908V51.6211H40.5491C39.9265 51.6199 39.3153 51.7891 38.7819 52.1102V46.252C37.8842 45.6933 36.8519 45.3883 35.7947 45.3694C36.22 45.7659 36.5591 46.2458 36.7909 46.779C37.0227 47.3123 37.1422 47.8875 37.1421 48.469V54.5689C37.118 54.732 37.1061 54.8968 37.1065 55.0617C37.1065 55.1067 37.1065 55.1536 37.1065 55.2004C37.0051 56.0012 36.6776 56.7564 36.1624 57.3777C35.6472 57.999 34.9655 58.4606 34.1974 58.7084C33.4292 58.9562 32.6063 58.9799 31.8251 58.7768C31.044 58.5737 30.3369 58.1522 29.7867 57.5617V59.6662C31.0586 60.4569 32.5843 60.7326 34.0525 60.4369C35.5207 60.1413 36.8208 59.2966 37.6875 58.0751C38.2904 59.5737 39.3274 60.8578 40.6654 61.7627C42.0034 62.6676 43.5813 63.152 45.1966 63.1537H47.7116C46.4716 64.0066 45.4576 65.1483 44.757 66.4803C44.0564 67.8123 43.6902 69.2947 43.6899 70.7997V73.3033H45.3297V70.7997C45.3322 68.7726 46.1385 66.8292 47.5719 65.3959C49.0052 63.9625 50.9486 63.1562 52.9756 63.1537V61.5139H45.1966C43.5227 61.512 41.9148 60.8603 40.7119 59.6962C39.509 58.5321 38.805 56.9465 38.7482 55.2735C38.7669 55.0861 38.7781 54.8987 38.78 54.7113C38.8622 54.303 39.0831 53.9357 39.4052 53.6717C39.7272 53.4077 40.1307 53.2632 40.5472 53.2627H55.9553C58.3616 53.2652 60.6686 54.2222 62.3702 55.9237C64.0717 57.6252 65.0287 59.9322 65.0311 62.3385C65.0311 67.7731 62.9866 72.6887 59.2742 76.1687C57.4499 77.8653 55.2984 79.1714 52.9515 80.007C50.6046 80.8426 48.1117 81.19 45.6258 81.028C40.9951 80.7282 36.6961 78.6012 33.5197 75.0405C32.3209 73.6964 31.3178 72.1898 30.54 70.5654C31.3175 73.3992 32.6862 76.0363 34.556 78.3032C37.6614 80.8738 41.4982 82.3998 45.5208 82.664C45.9493 82.6927 46.3773 82.7071 46.8045 82.7071C51.8491 82.7105 56.7071 80.8005 60.3986 77.3624C64.4464 73.5676 66.6746 68.2304 66.6746 62.3348C66.6746 50.1931 66.6746 50.1931 68.4287 37.8602C69.0097 33.7805 69.8042 28.1922 70.8518 20.3682C71.0009 19.3187 70.8468 18.2484 70.4077 17.2836V17.2836Z" fill="#452CD6"/>
<circle cx="50" cy="50" r="49" stroke="#FF30D6" stroke-width="2"/>
</svg>
